# file generated by UVMapper
# NumVerts/NumTVerts/NumVNormals/NumFacets   86/115/117/96
# NumGroups/NumMaterials/NumRegions   1/0/0
# x/y/color/ppu   512/512/0/50.00000000

v  0.07294000 -33.67089844  0.00000000
v  12.87450027 -31.12450027  0.00000000
v  23.72719955 -23.87299919  0.00000000
v  30.97870064 -13.02040005  0.00000000
v  33.52510071 -0.21882001  0.00000000
v  30.97870064  12.58269978  0.00000000
v  23.72719955  23.43540001  0.00000000
v  12.87450027  30.68689919  0.00000000
v  0.07294000  33.23329926  0.00000000
v  11.15939999 -31.12450027 -6.40078020
v  20.55809975 -23.87299919 -11.82709980
v  26.83810043 -13.02040005 -15.45289993
v  29.04330063 -0.21882001 -16.72610092
v  26.83810043  12.58269978 -15.45289993
v  20.55809975  23.43540001 -11.82709980
v  11.15939999  30.68689919 -6.40078020
v  6.47373009 -31.12450027 -11.08650017
v  11.90009975 -23.87299919 -20.48509979
v  15.52579975 -13.02040005 -26.76510048
v  16.79899979 -0.21882001 -28.97039986
v  15.52579975  12.58269978 -26.76510048
v  11.90009975  23.43540001 -20.48509979
v  6.47373009  30.68689919 -11.08650017
v  0.07294000 -31.12450027 -12.80160046
v  0.07294000 -23.87299919 -23.65419960
v  0.07294000 -13.02040005 -30.90570068
v  0.07294000 -0.21882001 -33.45209885
v  0.07294000  12.58269978 -30.90570068
v  0.07294000  23.43540001 -23.65419960
v  0.07294000  30.68689919 -12.80160046
v -6.32783985 -31.12450027 -11.08650017
v -11.75419998 -23.87299919 -20.48509979
v -15.37989998 -13.02040005 -26.76510048
v -16.65309906 -0.21882001 -28.97039986
v -15.37989998  12.58269978 -26.76510048
v -11.75419998  23.43540001 -20.48509979
v -6.32783985  30.68689919 -11.08650017
v -11.01350021 -31.12450027 -6.40078020
v -20.41220093 -23.87299919 -11.82709980
v -26.69219971 -13.02040005 -15.45289993
v -28.89739990 -0.21882001 -16.72610092
v -26.69219971  12.58269978 -15.45289993
v -20.41220093  23.43540001 -11.82709980
v -11.01350021  30.68689919 -6.40078020
v -12.72859955 -31.12450027  0.00000000
v -23.58130074 -23.87299919  0.00000000
v -30.83279991 -13.02040005  0.00000000
v -33.37919998 -0.21882001  0.00000000
v -30.83279991  12.58269978  0.00000000
v -23.58130074  23.43540001  0.00000000
v -12.72859955  30.68689919  0.00000000
v -11.01350021 -31.12450027  6.40078020
v -20.41220093 -23.87299919  11.82709980
v -26.69219971 -13.02040005  15.45289993
v -28.89739990 -0.21882001  16.72610092
v -26.69219971  12.58269978  15.45289993
v -20.41220093  23.43540001  11.82709980
v -11.01350021  30.68689919  6.40078020
v -6.32783985 -31.12450027  11.08650017
v -11.75419998 -23.87299919  20.48509979
v -15.37989998 -13.02040005  26.76510048
v -16.65309906 -0.21882001  28.97039986
v -15.37989998  12.58269978  26.76510048
v -11.75419998  23.43540001  20.48509979
v -6.32783985  30.68689919  11.08650017
v  0.07294000 -31.12450027  12.80160046
v  0.07294000 -23.87299919  23.65419960
v  0.07294000 -13.02040005  30.90570068
v  0.07294000 -0.21882001  33.45209885
v  0.07294000  12.58269978  30.90570068
v  0.07294000  23.43540001  23.65419960
v  0.07294000  30.68689919  12.80160046
v  6.47373009 -31.12450027  11.08650017
v  11.90009975 -23.87299919  20.48509979
v  15.52579975 -13.02040005  26.76510048
v  16.79899979 -0.21882001  28.97039986
v  15.52579975  12.58269978  26.76510048
v  11.90009975  23.43540001  20.48509979
v  6.47373009  30.68689919  11.08650017
v  11.15939999 -31.12450027  6.40078020
v  20.55809975 -23.87299919  11.82709980
v  26.83810043 -13.02040005  15.45289993
v  29.04330063 -0.21882001  16.72610092
v  26.83810043  12.58269978  15.45289993
v  20.55809975  23.43540001  11.82709980
v  11.15939999  30.68689919  6.40078020

vt  0.08333000  0.12500000
vt  0.00000000  0.00000000
vt  0.08333000  0.00000000
vt  0.25000000  0.12500000
vt  0.16666999  0.00000000
vt  0.33333001  0.12500000
vt  0.25000000  0.00000000
vt  0.33333001  0.00000000
vt  0.41666999  0.00000000
vt  0.50000000  0.00000000
vt  0.58332998  0.00000000
vt  0.66667002  0.00000000
vt  0.75000000  0.12500000
vt  0.75000000  0.00000000
vt  0.83332998  0.12500000
vt  0.83332998  0.00000000
vt  1.00000000  0.12500000
vt  0.91667002  0.12500000
vt  0.91667002  0.00000000
vt  0.08333000  0.25000000
vt  0.00000000  0.25000000
vt  0.00000000  0.12500000
vt  0.16666999  0.25000000
vt  0.16666999  0.12500000
vt  0.25000000  0.25000000
vt  0.41666999  0.25000000
vt  0.41666999  0.12500000
vt  0.50000000  0.25000000
vt  0.50000000  0.12500000
vt  0.58332998  0.25000000
vt  0.58332998  0.12500000
vt  0.66667002  0.12500000
vt  0.75000000  0.25000000
vt  1.00000000  0.25000000
vt  0.91667002  0.25000000
vt  0.33333001  0.25000000
vt  0.41666999  0.37500000
vt  0.50000000  0.37500000
vt  0.66667002  0.37500000
vt  0.66667002  0.25000000
vt  0.83332998  0.37500000
vt  0.75000000  0.37500000
vt  0.83332998  0.25000000
vt  0.91667002  0.37500000
vt  0.00000000  0.37500000
vt  0.08333000  0.37500000
vt  0.16666999  0.50000000
vt  0.16666999  0.37500000
vt  0.25000000  0.37500000
vt  0.33333001  0.50000000
vt  0.33333001  0.37500000
vt  0.41666999  0.50000000
vt  0.66667002  0.50000000
vt  0.58332998  0.37500000
vt  0.75000000  0.50000000
vt  0.83332998  0.50000000
vt  0.91667002  0.50000000
vt  1.00000000  0.37500000
vt  0.00000000  0.50000000
vt  0.08333000  0.50000000
vt  0.25000000  0.62500000
vt  0.25000000  0.50000000
vt  0.33333001  0.62500000
vt  0.41666999  0.62500000
vt  0.58332998  0.62500000
vt  0.50000000  0.62500000
vt  0.50000000  0.50000000
vt  0.58332998  0.50000000
vt  0.66667002  0.62500000
vt  0.75000000  0.62500000
vt  1.00000000  0.50000000
vt  0.00000000  0.75000000
vt  0.00000000  0.62500000
vt  0.08333000  0.62500000
vt  0.16666999  0.62500000
vt  0.83332998  0.62500000
vt  0.83332998  0.75000000
vt  0.91667002  0.62500000
vt  1.00000000  0.75000000
vt  1.00000000  0.62500000
vt  0.08333000  0.87500000
vt  0.00000000  0.87500000
vt  0.08333000  0.75000000
vt  0.16666999  0.75000000
vt  0.16666999  0.87500000
vt  0.25000000  0.75000000
vt  0.41666999  0.87500000
vt  0.33333001  0.87500000
vt  0.33333001  0.75000000
vt  0.41666999  0.75000000
vt  0.50000000  0.75000000
vt  0.66667002  0.87500000
vt  0.58332998  0.75000000
vt  0.66667002  0.75000000
vt  0.75000000  0.75000000
vt  0.75000000  0.87500000
vt  0.91667002  0.75000000
vt  1.00000000  0.87500000
vt  0.91667002  0.87500000
vt  0.00000000  1.00000000
vt  0.08333000  1.00000000
vt  0.16666999  1.00000000
vt  0.25000000  1.00000000
vt  0.25000000  0.87500000
vt  0.33333001  1.00000000
vt  0.41666999  1.00000000
vt  0.50000000  1.00000000
vt  0.50000000  0.87500000
vt  0.58332998  1.00000000
vt  0.58332998  0.87500000
vt  0.66667002  1.00000000
vt  0.75000000  1.00000000
vt  0.83332998  0.87500000
vt  0.83332998  1.00000000
vt  0.91667002  1.00000000

vn  0.00000000 -1.00000000  0.00000000
vn  0.38268000 -0.92387998  0.00000000
vn  0.70710999 -0.70710999  0.00000000
vn  0.92387998 -0.38268000  0.00000000
vn  1.00000000  0.00000000  0.00000000
vn  0.92387998  0.38268000  0.00000000
vn  0.70710999  0.70710999  0.00000000
vn  0.38268000  0.92387998  0.00000000
vn  0.00000000  1.00000000  0.00000000
vn  0.00000000 -1.00000000  0.00000000
vn  0.33140999 -0.92387998 -0.19134000
vn  0.61237001 -0.70710999 -0.35354999
vn  0.80010003 -0.38268000 -0.46193999
vn  0.86602998  0.00000000 -0.50000000
vn  0.80010003  0.38268000 -0.46193999
vn  0.61237001  0.70710999 -0.35354999
vn  0.33140999  0.92387998 -0.19134000
vn  0.00000000  1.00000000  0.00000000
vn  0.00000000 -1.00000000  0.00000000
vn  0.19134000 -0.92387998 -0.33140999
vn  0.35354999 -0.70710999 -0.61237001
vn  0.46193999 -0.38268000 -0.80010003
vn  0.50000000  0.00000000 -0.86602998
vn  0.46193999  0.38268000 -0.80010003
vn  0.35354999  0.70710999 -0.61237001
vn  0.19134000  0.92387998 -0.33140999
vn  0.00000000  1.00000000  0.00000000
vn  0.00000000 -1.00000000  0.00000000
vn  0.00000000 -0.92387998 -0.38268000
vn  0.00000000 -0.70710999 -0.70710999
vn  0.00000000 -0.38268000 -0.92387998
vn  0.00000000  0.00000000 -1.00000000
vn  0.00000000  0.38268000 -0.92387998
vn  0.00000000  0.70710999 -0.70710999
vn  0.00000000  0.92387998 -0.38268000
vn  0.00000000  1.00000000  0.00000000
vn  0.00000000 -1.00000000  0.00000000
vn -0.19134000 -0.92387998 -0.33140999
vn -0.35354999 -0.70710999 -0.61237001
vn -0.46193999 -0.38268000 -0.80010003
vn -0.50000000  0.00000000 -0.86602998
vn -0.46193999  0.38268000 -0.80010003
vn -0.35354999  0.70710999 -0.61237001
vn -0.19134000  0.92387998 -0.33140999
vn  0.00000000  1.00000000  0.00000000
vn  0.00000000 -1.00000000  0.00000000
vn -0.33140999 -0.92387998 -0.19134000
vn -0.61237001 -0.70710999 -0.35354999
vn -0.80010003 -0.38268000 -0.46193999
vn -0.86602998  0.00000000 -0.50000000
vn -0.80010003  0.38268000 -0.46193999
vn -0.61237001  0.70710999 -0.35354999
vn -0.33140999  0.92387998 -0.19134000
vn  0.00000000  1.00000000  0.00000000
vn  0.00000000 -1.00000000  0.00000000
vn -0.38268000 -0.92387998  0.00000000
vn -0.70710999 -0.70710999  0.00000000
vn -0.92387998 -0.38268000  0.00000000
vn -1.00000000  0.00000000  0.00000000
vn -0.92387998  0.38268000  0.00000000
vn -0.70710999  0.70710999  0.00000000
vn -0.38268000  0.92387998  0.00000000
vn  0.00000000  1.00000000  0.00000000
vn  0.00000000 -1.00000000  0.00000000
vn -0.33140999 -0.92387998  0.19134000
vn -0.61237001 -0.70710999  0.35354999
vn -0.80010003 -0.38268000  0.46193999
vn -0.86602998  0.00000000  0.50000000
vn -0.80010003  0.38268000  0.46193999
vn -0.61237001  0.70710999  0.35354999
vn -0.33140999  0.92387998  0.19134000
vn  0.00000000  1.00000000  0.00000000
vn  0.00000000 -1.00000000  0.00000000
vn -0.19134000 -0.92387998  0.33140999
vn -0.35354999 -0.70710999  0.61237001
vn -0.46193999 -0.38268000  0.80010003
vn -0.50000000  0.00000000  0.86602998
vn -0.46193999  0.38268000  0.80010003
vn -0.35354999  0.70710999  0.61237001
vn -0.19134000  0.92387998  0.33140999
vn  0.00000000  1.00000000  0.00000000
vn  0.00000000 -1.00000000  0.00000000
vn  0.00000000 -0.92387998  0.38268000
vn  0.00000000 -0.70710999  0.70710999
vn  0.00000000 -0.38268000  0.92387998
vn  0.00000000  0.00000000  1.00000000
vn  0.00000000  0.38268000  0.92387998
vn  0.00000000  0.70710999  0.70710999
vn  0.00000000  0.92387998  0.38268000
vn  0.00000000  1.00000000  0.00000000
vn  0.00000000 -1.00000000  0.00000000
vn  0.19134000 -0.92387998  0.33140999
vn  0.35354999 -0.70710999  0.61237001
vn  0.46193999 -0.38268000  0.80010003
vn  0.50000000  0.00000000  0.86602998
vn  0.46193999  0.38268000  0.80010003
vn  0.35354999  0.70710999  0.61237001
vn  0.19134000  0.92387998  0.33140999
vn  0.00000000  1.00000000  0.00000000
vn  0.00000000 -1.00000000  0.00000000
vn  0.33140999 -0.92387998  0.19134000
vn  0.61237001 -0.70710999  0.35354999
vn  0.80010003 -0.38268000  0.46193999
vn  0.86602998  0.00000000  0.50000000
vn  0.80010003  0.38268000  0.46193999
vn  0.61237001  0.70710999  0.35354999
vn  0.33140999  0.92387998  0.19134000
vn  0.00000000  1.00000000  0.00000000
vn  0.00000000 -1.00000000  0.00000000
vn  0.38268000 -0.92387998  0.00000000
vn  0.70710999 -0.70710999  0.00000000
vn  0.92387998 -0.38268000  0.00000000
vn  1.00000000  0.00000000  0.00000000
vn  0.92387998  0.38268000  0.00000000
vn  0.70710999  0.70710999  0.00000000
vn  0.38268000  0.92387998  0.00000000
vn  0.00000000  1.00000000  0.00000000

g sphere01
f 10/1/11 2/22/2 1/2/1
f 17/24/20 10/1/11 1/3/10
f 24/4/29 17/24/20 1/5/19
f 31/6/38 24/4/29 1/7/28
f 38/27/47 31/6/38 1/8/37
f 45/29/56 38/27/47 1/9/46
f 52/31/65 45/29/56 1/10/55
f 59/32/74 52/31/65 1/11/64
f 66/13/83 59/32/74 1/12/73
f 73/15/92 66/13/83 1/14/82
f 80/18/101 73/15/92 1/16/91
f 2/17/110 80/18/101 1/19/100
f 11/20/12 3/21/3 2/22/2 10/1/11
f 18/23/21 11/20/12 10/1/11 17/24/20
f 25/25/30 18/23/21 17/24/20 24/4/29
f 32/36/39 25/25/30 24/4/29 31/6/38
f 39/26/48 32/36/39 31/6/38 38/27/47
f 46/28/57 39/26/48 38/27/47 45/29/56
f 53/30/66 46/28/57 45/29/56 52/31/65
f 60/40/75 53/30/66 52/31/65 59/32/74
f 67/33/84 60/40/75 59/32/74 66/13/83
f 74/43/93 67/33/84 66/13/83 73/15/92
f 81/35/102 74/43/93 73/15/92 80/18/101
f 3/34/111 81/35/102 80/18/101 2/17/110
f 12/46/13 4/45/4 3/21/3 11/20/12
f 19/48/22 12/46/13 11/20/12 18/23/21
f 26/49/31 19/48/22 18/23/21 25/25/30
f 33/51/40 26/49/31 25/25/30 32/36/39
f 40/37/49 33/51/40 32/36/39 39/26/48
f 47/38/58 40/37/49 39/26/48 46/28/57
f 54/54/67 47/38/58 46/28/57 53/30/66
f 61/39/76 54/54/67 53/30/66 60/40/75
f 68/42/85 61/39/76 60/40/75 67/33/84
f 75/41/94 68/42/85 67/33/84 74/43/93
f 82/44/103 75/41/94 74/43/93 81/35/102
f 4/58/112 82/44/103 81/35/102 3/34/111
f 13/60/14 5/59/5 4/45/4 12/46/13
f 20/47/23 13/60/14 12/46/13 19/48/22
f 27/62/32 20/47/23 19/48/22 26/49/31
f 34/50/41 27/62/32 26/49/31 33/51/40
f 41/52/50 34/50/41 33/51/40 40/37/49
f 48/67/59 41/52/50 40/37/49 47/38/58
f 55/68/68 48/67/59 47/38/58 54/54/67
f 62/53/77 55/68/68 54/54/67 61/39/76
f 69/55/86 62/53/77 61/39/76 68/42/85
f 76/56/95 69/55/86 68/42/85 75/41/94
f 83/57/104 76/56/95 75/41/94 82/44/103
f 5/71/113 83/57/104 82/44/103 4/58/112
f 14/74/15 6/73/6 5/59/5 13/60/14
f 21/75/24 14/74/15 13/60/14 20/47/23
f 28/61/33 21/75/24 20/47/23 27/62/32
f 35/63/42 28/61/33 27/62/32 34/50/41
f 42/64/51 35/63/42 34/50/41 41/52/50
f 49/66/60 42/64/51 41/52/50 48/67/59
f 56/65/69 49/66/60 48/67/59 55/68/68
f 63/69/78 56/65/69 55/68/68 62/53/77
f 70/70/87 63/69/78 62/53/77 69/55/86
f 77/76/96 70/70/87 69/55/86 76/56/95
f 84/78/105 77/76/96 76/56/95 83/57/104
f 6/80/114 84/78/105 83/57/104 5/71/113
f 15/83/16 7/72/7 6/73/6 14/74/15
f 22/84/25 15/83/16 14/74/15 21/75/24
f 29/86/34 22/84/25 21/75/24 28/61/33
f 36/89/43 29/86/34 28/61/33 35/63/42
f 43/90/52 36/89/43 35/63/42 42/64/51
f 50/91/61 43/90/52 42/64/51 49/66/60
f 57/93/70 50/91/61 49/66/60 56/65/69
f 64/94/79 57/93/70 56/65/69 63/69/78
f 71/95/88 64/94/79 63/69/78 70/70/87
f 78/77/97 71/95/88 70/70/87 77/76/96
f 85/97/106 78/77/97 77/76/96 84/78/105
f 7/79/115 85/97/106 84/78/105 6/80/114
f 16/81/17 8/82/8 7/72/7 15/83/16
f 23/85/26 16/81/17 15/83/16 22/84/25
f 30/104/35 23/85/26 22/84/25 29/86/34
f 37/88/44 30/104/35 29/86/34 36/89/43
f 44/87/53 37/88/44 36/89/43 43/90/52
f 51/108/62 44/87/53 43/90/52 50/91/61
f 58/110/71 51/108/62 50/91/61 57/93/70
f 65/92/80 58/110/71 57/93/70 64/94/79
f 72/96/89 65/92/80 64/94/79 71/95/88
f 79/113/98 72/96/89 71/95/88 78/77/97
f 86/99/107 79/113/98 78/77/97 85/97/106
f 8/98/116 86/99/107 85/97/106 7/79/115
f 9/100/9 8/82/8 16/81/17
f 9/101/18 16/81/17 23/85/26
f 9/102/27 23/85/26 30/104/35
f 9/103/36 30/104/35 37/88/44
f 9/105/45 37/88/44 44/87/53
f 9/106/54 44/87/53 51/108/62
f 9/107/63 51/108/62 58/110/71
f 9/109/72 58/110/71 65/92/80
f 9/111/81 65/92/80 72/96/89
f 9/112/90 72/96/89 79/113/98
f 9/114/99 79/113/98 86/99/107
f 9/115/108 86/99/107 8/98/116
